<svg width="329.34" height="238.096" viewBox="0 0 87.138 62.996" xmlns="http://www.w3.org/2000/svg"><path d="M0 62.879c0-.058.712-1.65 1.574-3.53.863-1.878 2.522-5.534 3.691-8.114 1.167-2.582 2.783-6.143 3.596-7.914 2.344-5.077 4.376-9.588 10.266-22.764a4849 4849 0 0 1 8.699-19.37c.238-.508.474-.956.542-.99.059-.042 2.7-.077 5.874-.077h5.763l.407.863c.863 1.862 4.239 9.234 4.781 10.435.313.701.897 1.971 1.286 2.836.397.863 1.98 4.324 3.511 7.702a3403 3403 0 0 0 4.257 9.308c.805 1.744 1.87 4.07 2.371 5.162l2.667 5.84c.974 2.116 2.318 5.07 3.003 6.559l1.236 2.71.627.068c1.058.119 4.68.008 5.408-.154 2.945-.658 5-2.76 5.635-5.738.204-.932.17-2.506-.076-3.461-.44-1.736-1.236-3.13-2.43-4.25-.534-.5-.87-.735-1.54-1.066-1.354-.658-1.515-.677-6.177-.677H60.96l-2.437-5.474c-1.336-3.022-2.455-5.551-2.48-5.628-.034-.143.205-.153 4.097-.153 5.373 0 6.246-.085 7.625-.72.796-.365 1.294-.72 1.905-1.336a7.1 7.1 0 0 0 1.852-3.257c.33-1.312.17-3.207-.389-4.469q-1.294-2.933-4.315-3.776c-.678-.195-.701-.195-8.843-.22l-8.167-.026-2.59-5.516C45.786 2.644 44.635.139 44.654.112 44.704.02 66.41-.049 67.402.044c2.675.238 4.993.854 7.118 1.894 5.061 2.48 8.318 7.133 9.149 13.068.204 1.49.127 4.18-.17 5.55-.396 1.895-1.081 3.546-2.082 5.044-.508.762-2.047 2.378-3.08 3.249l-.407.338.839.482c2.675 1.548 4.45 3.268 5.924 5.739 1.177 1.963 1.886 3.96 2.286 6.39.212 1.304.212 4.503 0 5.881-.524 3.403-2.05 6.222-3.868 8.895-.836 1.228-1.946 2.282-3.149 3.153-1.103.799-2.37 1.368-3.648 1.842-1.637.607-3.638 1.038-5.086 1.258-1.024.16-1.54.169-8.53.169h-7.44l-.542-1.117a842 842 0 0 1-1.905-4.087c-.762-1.625-1.913-4.104-2.564-5.501s-1.379-2.98-1.625-3.511c-.246-.535-.923-1.998-1.505-3.257-4.781-10.308-13.007-28.477-13.007-28.74 0-.042-.12-.076-.262-.076-.228 0-.28.05-.458.44-.11.245-.905 2.047-1.76 4.002a974 974 0 0 1-3.934 8.843c-1.894 4.207-2.894 6.466-2.894 6.532 0 .035 3.072.07 6.837.07h6.829l.627 1.547c.635 1.54 3.545 8.284 4.111 9.504.22.492.27.677.204.762-.077.092-2.21.119-11.89.135-11.687.026-11.798.026-11.967.195-.093.093-.508.932-.924 1.863a4340 4340 0 0 1-5.432 12.168l-.1.228H6.545c-5.517 0-6.54-.016-6.54-.12z" fill="#29c5f8"/></svg>